<mxfile host="app.diagrams.net" agent="Mozilla/5.0 (Windows NT 10.0; Win64; x64) AppleWebKit/537.36 (KHTML, like Gecko) Chrome/136.0.0.0 Safari/537.36" version="27.0.9">
  <diagram name="Página-1" id="Gdd0qy7ihIA7BFV9nGSZ">
    <mxGraphModel dx="-132" dy="375" grid="1" gridSize="10" guides="1" tooltips="1" connect="1" arrows="1" fold="1" page="1" pageScale="1" pageWidth="827" pageHeight="1169" math="0" shadow="0">
      <root>
        <mxCell id="0" />
        <mxCell id="1" parent="0" />
        <mxCell id="wZIHkA0Y6GjkkNuYpur6-1" value="&lt;font style=&quot;font-size: 35px;&quot;&gt;Diagrama de Casos de Uso para o iFood&lt;/font&gt;" style="text;strokeColor=none;fillColor=none;html=1;fontSize=24;fontStyle=1;verticalAlign=middle;align=center;" vertex="1" parent="1">
          <mxGeometry x="873" y="20" width="736" height="100" as="geometry" />
        </mxCell>
        <mxCell id="wZIHkA0Y6GjkkNuYpur6-4" value="Cliente" style="shape=umlActor;verticalLabelPosition=bottom;verticalAlign=top;html=1;outlineConnect=0;" vertex="1" parent="1">
          <mxGeometry x="1052" y="260" width="30" height="60" as="geometry" />
        </mxCell>
        <mxCell id="wZIHkA0Y6GjkkNuYpur6-8" value="" style="endArrow=open;html=1;rounded=0;endFill=0;" edge="1" parent="1">
          <mxGeometry width="50" height="50" relative="1" as="geometry">
            <mxPoint x="1089" y="290" as="sourcePoint" />
            <mxPoint x="1229" y="180" as="targetPoint" />
          </mxGeometry>
        </mxCell>
        <mxCell id="wZIHkA0Y6GjkkNuYpur6-9" value="Usuário" style="shape=umlActor;verticalLabelPosition=bottom;verticalAlign=top;html=1;outlineConnect=0;" vertex="1" parent="1">
          <mxGeometry x="1229" y="150" width="30" height="60" as="geometry" />
        </mxCell>
        <mxCell id="wZIHkA0Y6GjkkNuYpur6-10" value="Entregador" style="shape=umlActor;verticalLabelPosition=bottom;verticalAlign=top;html=1;outlineConnect=0;" vertex="1" parent="1">
          <mxGeometry x="1399" y="260" width="30" height="60" as="geometry" />
        </mxCell>
        <mxCell id="wZIHkA0Y6GjkkNuYpur6-11" value="" style="endArrow=open;html=1;rounded=0;endFill=0;" edge="1" parent="1">
          <mxGeometry width="50" height="50" relative="1" as="geometry">
            <mxPoint x="1399.0000000000002" y="290" as="sourcePoint" />
            <mxPoint x="1259.0000000000002" y="180" as="targetPoint" />
          </mxGeometry>
        </mxCell>
        <mxCell id="wZIHkA0Y6GjkkNuYpur6-13" value="" style="endArrow=none;html=1;rounded=0;" edge="1" parent="1">
          <mxGeometry width="50" height="50" relative="1" as="geometry">
            <mxPoint x="1270" y="170" as="sourcePoint" />
            <mxPoint x="1360" y="170" as="targetPoint" />
          </mxGeometry>
        </mxCell>
        <mxCell id="wZIHkA0Y6GjkkNuYpur6-14" value="Criar Conta" style="ellipse;whiteSpace=wrap;html=1;" vertex="1" parent="1">
          <mxGeometry x="1360" y="150" width="75" height="40" as="geometry" />
        </mxCell>
        <mxCell id="wZIHkA0Y6GjkkNuYpur6-15" value="Restaurante" style="shape=umlActor;verticalLabelPosition=bottom;verticalAlign=top;html=1;outlineConnect=0;" vertex="1" parent="1">
          <mxGeometry x="1229" y="320" width="30" height="60" as="geometry" />
        </mxCell>
        <mxCell id="wZIHkA0Y6GjkkNuYpur6-17" value="" style="endArrow=open;html=1;rounded=0;endFill=0;" edge="1" parent="1">
          <mxGeometry width="50" height="50" relative="1" as="geometry">
            <mxPoint x="1244" y="310" as="sourcePoint" />
            <mxPoint x="1243.57" y="240" as="targetPoint" />
          </mxGeometry>
        </mxCell>
        <mxCell id="wZIHkA0Y6GjkkNuYpur6-20" value="" style="endArrow=none;html=1;rounded=0;exitX=1;exitY=0.5;exitDx=0;exitDy=0;" edge="1" parent="1" source="wZIHkA0Y6GjkkNuYpur6-21">
          <mxGeometry width="50" height="50" relative="1" as="geometry">
            <mxPoint x="1150" y="410" as="sourcePoint" />
            <mxPoint x="1230" y="400" as="targetPoint" />
          </mxGeometry>
        </mxCell>
        <mxCell id="wZIHkA0Y6GjkkNuYpur6-21" value="Cadastrar&lt;div&gt;Comida&lt;span style=&quot;color: rgba(0, 0, 0, 0); font-family: monospace; font-size: 0px; text-align: start; text-wrap-mode: nowrap; background-color: transparent;&quot;&gt;%3CmxGraphModel%3E%3Croot%3E%3CmxCell%20id%3D%220%22%2F%3E%3CmxCell%20id%3D%221%22%20parent%3D%220%22%2F%3E%3CmxCell%20id%3D%222%22%20value%3D%22Criar%20Conta%22%20style%3D%22ellipse%3BwhiteSpace%3Dwrap%3Bhtml%3D1%3B%22%20vertex%3D%221%22%20parent%3D%221%22%3E%3CmxGeometry%20x%3D%221360%22%20y%3D%22150%22%20width%3D%2275%22%20height%3D%2240%22%20as%3D%22geometry%22%2F%3E%3C%2FmxCell%3E%3C%2Froot%3E%3C%2FmxGraphModel%3E&lt;/span&gt;&lt;/div&gt;" style="ellipse;whiteSpace=wrap;html=1;" vertex="1" parent="1">
          <mxGeometry x="1110" y="390" width="75" height="40" as="geometry" />
        </mxCell>
        <mxCell id="wZIHkA0Y6GjkkNuYpur6-23" value="Realizar&lt;br&gt;Pedido" style="ellipse;whiteSpace=wrap;html=1;" vertex="1" parent="1">
          <mxGeometry x="1000" y="440" width="75" height="40" as="geometry" />
        </mxCell>
        <mxCell id="wZIHkA0Y6GjkkNuYpur6-24" value="" style="endArrow=none;html=1;rounded=0;exitX=0.5;exitY=0;exitDx=0;exitDy=0;" edge="1" parent="1" source="wZIHkA0Y6GjkkNuYpur6-23">
          <mxGeometry width="50" height="50" relative="1" as="geometry">
            <mxPoint x="1030" y="400" as="sourcePoint" />
            <mxPoint x="1060" y="340" as="targetPoint" />
          </mxGeometry>
        </mxCell>
        <mxCell id="wZIHkA0Y6GjkkNuYpur6-25" value="" style="endArrow=open;html=1;rounded=0;exitX=1;exitY=0.5;exitDx=0;exitDy=0;dashed=1;endFill=0;entryX=0;entryY=1;entryDx=0;entryDy=0;" edge="1" parent="1" source="wZIHkA0Y6GjkkNuYpur6-23" target="wZIHkA0Y6GjkkNuYpur6-21">
          <mxGeometry width="50" height="50" relative="1" as="geometry">
            <mxPoint x="1060" y="500" as="sourcePoint" />
            <mxPoint x="1120" y="460" as="targetPoint" />
          </mxGeometry>
        </mxCell>
        <mxCell id="wZIHkA0Y6GjkkNuYpur6-26" value="&lt;font style=&quot;font-size: 5px;&quot;&gt;&amp;lt;&amp;lt; INCLUDE &amp;gt;&amp;gt;&lt;/font&gt;" style="text;html=1;align=center;verticalAlign=middle;whiteSpace=wrap;rounded=0;rotation=321;fillColor=none;" vertex="1" parent="1">
          <mxGeometry x="1067" y="427" width="50" height="20" as="geometry" />
        </mxCell>
        <mxCell id="wZIHkA0Y6GjkkNuYpur6-29" value="Aceitar Pedido" style="ellipse;whiteSpace=wrap;html=1;" vertex="1" parent="1">
          <mxGeometry x="1320" y="390" width="75" height="40" as="geometry" />
        </mxCell>
        <mxCell id="wZIHkA0Y6GjkkNuYpur6-31" value="Recusar&lt;br&gt;Pedido" style="ellipse;whiteSpace=wrap;html=1;" vertex="1" parent="1">
          <mxGeometry x="1399" y="407" width="75" height="40" as="geometry" />
        </mxCell>
        <mxCell id="wZIHkA0Y6GjkkNuYpur6-33" value="" style="endArrow=open;html=1;rounded=0;exitX=0;exitY=0.5;exitDx=0;exitDy=0;dashed=1;endFill=0;entryX=1;entryY=0.5;entryDx=0;entryDy=0;" edge="1" parent="1" source="wZIHkA0Y6GjkkNuYpur6-29" target="wZIHkA0Y6GjkkNuYpur6-23">
          <mxGeometry width="50" height="50" relative="1" as="geometry">
            <mxPoint x="1156" y="440" as="sourcePoint" />
            <mxPoint x="1110" y="476" as="targetPoint" />
          </mxGeometry>
        </mxCell>
        <mxCell id="wZIHkA0Y6GjkkNuYpur6-34" value="&lt;font style=&quot;font-size: 5px;&quot;&gt;&amp;lt;&amp;lt; INCLUDE &amp;gt;&amp;gt;&lt;/font&gt;" style="text;html=1;align=center;verticalAlign=middle;whiteSpace=wrap;rounded=0;rotation=348.5;fillColor=none;" vertex="1" parent="1">
          <mxGeometry x="1173.0018529469226" y="415.00446939081564" width="50" height="20" as="geometry" />
        </mxCell>
        <mxCell id="wZIHkA0Y6GjkkNuYpur6-35" value="" style="endArrow=open;html=1;rounded=0;exitX=0.5;exitY=1;exitDx=0;exitDy=0;dashed=1;endFill=0;entryX=1;entryY=0.5;entryDx=0;entryDy=0;" edge="1" parent="1" source="wZIHkA0Y6GjkkNuYpur6-31" target="wZIHkA0Y6GjkkNuYpur6-23">
          <mxGeometry width="50" height="50" relative="1" as="geometry">
            <mxPoint x="1445" y="440" as="sourcePoint" />
            <mxPoint x="1200" y="490" as="targetPoint" />
          </mxGeometry>
        </mxCell>
        <mxCell id="wZIHkA0Y6GjkkNuYpur6-36" value="&lt;font style=&quot;font-size: 5px;&quot;&gt;&amp;lt;&amp;lt; INCLUDE &amp;gt;&amp;gt;&lt;/font&gt;" style="text;html=1;align=center;verticalAlign=middle;whiteSpace=wrap;rounded=0;rotation=358;fillColor=none;" vertex="1" parent="1">
          <mxGeometry x="1259.0018529469226" y="433.00446939081564" width="50" height="20" as="geometry" />
        </mxCell>
        <mxCell id="wZIHkA0Y6GjkkNuYpur6-37" value="" style="endArrow=none;html=1;rounded=0;exitX=0.5;exitY=0;exitDx=0;exitDy=0;" edge="1" parent="1" source="wZIHkA0Y6GjkkNuYpur6-29">
          <mxGeometry width="50" height="50" relative="1" as="geometry">
            <mxPoint x="1040" y="480" as="sourcePoint" />
            <mxPoint x="1390" y="340" as="targetPoint" />
          </mxGeometry>
        </mxCell>
        <mxCell id="wZIHkA0Y6GjkkNuYpur6-38" value="" style="endArrow=none;html=1;rounded=0;exitX=0.302;exitY=0.071;exitDx=0;exitDy=0;exitPerimeter=0;" edge="1" parent="1" source="wZIHkA0Y6GjkkNuYpur6-31">
          <mxGeometry width="50" height="50" relative="1" as="geometry">
            <mxPoint x="1380" y="440" as="sourcePoint" />
            <mxPoint x="1420" y="350" as="targetPoint" />
          </mxGeometry>
        </mxCell>
        <mxCell id="wZIHkA0Y6GjkkNuYpur6-39" value="Realizar&lt;br&gt;Pagamento" style="ellipse;whiteSpace=wrap;html=1;" vertex="1" parent="1">
          <mxGeometry x="940" y="380" width="75" height="40" as="geometry" />
        </mxCell>
        <mxCell id="wZIHkA0Y6GjkkNuYpur6-40" value="" style="endArrow=none;html=1;rounded=0;exitX=0.5;exitY=0;exitDx=0;exitDy=0;" edge="1" parent="1" source="wZIHkA0Y6GjkkNuYpur6-39">
          <mxGeometry width="50" height="50" relative="1" as="geometry">
            <mxPoint x="1030" y="540" as="sourcePoint" />
            <mxPoint x="1040" y="330" as="targetPoint" />
          </mxGeometry>
        </mxCell>
        <mxCell id="wZIHkA0Y6GjkkNuYpur6-41" value="Alterar&lt;div&gt;Status&lt;/div&gt;" style="ellipse;whiteSpace=wrap;html=1;" vertex="1" parent="1">
          <mxGeometry x="1480" y="387" width="75" height="40" as="geometry" />
        </mxCell>
        <mxCell id="wZIHkA0Y6GjkkNuYpur6-43" value="" style="endArrow=none;html=1;rounded=0;exitX=0.5;exitY=0;exitDx=0;exitDy=0;" edge="1" parent="1" source="wZIHkA0Y6GjkkNuYpur6-41">
          <mxGeometry width="50" height="50" relative="1" as="geometry">
            <mxPoint x="1426" y="440" as="sourcePoint" />
            <mxPoint x="1444" y="342" as="targetPoint" />
          </mxGeometry>
        </mxCell>
        <mxCell id="wZIHkA0Y6GjkkNuYpur6-44" value="" style="endArrow=none;html=1;rounded=0;exitX=1;exitY=0.5;exitDx=0;exitDy=0;dashed=1;endFill=0;entryX=0.5;entryY=1;entryDx=0;entryDy=0;startArrow=open;startFill=0;" edge="1" parent="1" source="wZIHkA0Y6GjkkNuYpur6-23" target="wZIHkA0Y6GjkkNuYpur6-41">
          <mxGeometry width="50" height="50" relative="1" as="geometry">
            <mxPoint x="1110" y="493" as="sourcePoint" />
            <mxPoint x="1520" y="460" as="targetPoint" />
            <Array as="points">
              <mxPoint x="1518" y="460" />
            </Array>
          </mxGeometry>
        </mxCell>
        <mxCell id="wZIHkA0Y6GjkkNuYpur6-45" value="&lt;font style=&quot;font-size: 5px; line-height: 0%;&quot;&gt;&amp;lt;&amp;lt; INCLUDE &amp;gt;&amp;gt;&lt;/font&gt;" style="edgeLabel;html=1;align=center;verticalAlign=middle;resizable=0;points=[];" vertex="1" connectable="0" parent="wZIHkA0Y6GjkkNuYpur6-44">
          <mxGeometry x="0.122" y="-2" relative="1" as="geometry">
            <mxPoint y="-2" as="offset" />
          </mxGeometry>
        </mxCell>
        <mxCell id="wZIHkA0Y6GjkkNuYpur6-46" value="&lt;font style=&quot;font-size: 3px;&quot;&gt;&amp;lt;&amp;lt; INCLUDE &amp;gt;&amp;gt;&lt;/font&gt;" style="text;html=1;align=center;verticalAlign=middle;whiteSpace=wrap;rounded=0;rotation=45;fillColor=none;" vertex="1" parent="1">
          <mxGeometry x="974.14" y="418.5" width="40.86" height="17" as="geometry" />
        </mxCell>
        <mxCell id="wZIHkA0Y6GjkkNuYpur6-47" value="" style="endArrow=open;html=1;rounded=0;exitX=0.5;exitY=1;exitDx=0;exitDy=0;dashed=1;endFill=0;entryX=0.065;entryY=0.26;entryDx=0;entryDy=0;entryPerimeter=0;" edge="1" parent="1" source="wZIHkA0Y6GjkkNuYpur6-39" target="wZIHkA0Y6GjkkNuYpur6-23">
          <mxGeometry width="50" height="50" relative="1" as="geometry">
            <mxPoint x="1110" y="476" as="sourcePoint" />
            <mxPoint x="1156" y="440" as="targetPoint" />
          </mxGeometry>
        </mxCell>
        <mxCell id="wZIHkA0Y6GjkkNuYpur6-48" value="UC" style="shape=umlFrame;whiteSpace=wrap;html=1;pointerEvents=0;" vertex="1" parent="1">
          <mxGeometry x="880" y="140" width="720" height="370" as="geometry" />
        </mxCell>
      </root>
    </mxGraphModel>
  </diagram>
</mxfile>
